<mxfile host="app.diagrams.net" agent="Mozilla/5.0 (Macintosh; Intel Mac OS X 10_15_7) AppleWebKit/605.1.15 (KHTML, like Gecko) Version/18.3 Safari/605.1.15" version="26.1.0">
  <diagram name="Page-1" id="fvnUd60vDInQ1kaAuHPe">
    <mxGraphModel dx="862" dy="1131" grid="1" gridSize="10" guides="1" tooltips="1" connect="1" arrows="1" fold="1" page="1" pageScale="1" pageWidth="850" pageHeight="1100" math="0" shadow="0">
      <root>
        <mxCell id="0" />
        <mxCell id="1" parent="0" />
        <mxCell id="8ysda7LcMrtwfy4nSgw7-28" style="edgeStyle=orthogonalEdgeStyle;rounded=0;orthogonalLoop=1;jettySize=auto;html=1;" edge="1" parent="1" source="8ysda7LcMrtwfy4nSgw7-1" target="8ysda7LcMrtwfy4nSgw7-2">
          <mxGeometry relative="1" as="geometry" />
        </mxCell>
        <mxCell id="8ysda7LcMrtwfy4nSgw7-1" value="inicio" style="ellipse;whiteSpace=wrap;html=1;aspect=fixed;" vertex="1" parent="1">
          <mxGeometry x="385" y="40" width="80" height="80" as="geometry" />
        </mxCell>
        <mxCell id="8ysda7LcMrtwfy4nSgw7-29" style="edgeStyle=orthogonalEdgeStyle;rounded=0;orthogonalLoop=1;jettySize=auto;html=1;entryX=0.5;entryY=0;entryDx=0;entryDy=0;" edge="1" parent="1" source="8ysda7LcMrtwfy4nSgw7-2" target="8ysda7LcMrtwfy4nSgw7-4">
          <mxGeometry relative="1" as="geometry" />
        </mxCell>
        <mxCell id="8ysda7LcMrtwfy4nSgw7-2" value="Bienvenido" style="shape=parallelogram;perimeter=parallelogramPerimeter;whiteSpace=wrap;html=1;fixedSize=1;" vertex="1" parent="1">
          <mxGeometry x="365" y="160" width="120" height="60" as="geometry" />
        </mxCell>
        <mxCell id="8ysda7LcMrtwfy4nSgw7-30" style="edgeStyle=orthogonalEdgeStyle;rounded=0;orthogonalLoop=1;jettySize=auto;html=1;" edge="1" parent="1" source="8ysda7LcMrtwfy4nSgw7-4" target="8ysda7LcMrtwfy4nSgw7-5">
          <mxGeometry relative="1" as="geometry" />
        </mxCell>
        <mxCell id="8ysda7LcMrtwfy4nSgw7-4" value="" style="ellipse;whiteSpace=wrap;html=1;aspect=fixed;" vertex="1" parent="1">
          <mxGeometry x="415" y="260" width="20" height="20" as="geometry" />
        </mxCell>
        <mxCell id="8ysda7LcMrtwfy4nSgw7-31" style="edgeStyle=orthogonalEdgeStyle;rounded=0;orthogonalLoop=1;jettySize=auto;html=1;" edge="1" parent="1" source="8ysda7LcMrtwfy4nSgw7-5" target="8ysda7LcMrtwfy4nSgw7-6">
          <mxGeometry relative="1" as="geometry" />
        </mxCell>
        <mxCell id="8ysda7LcMrtwfy4nSgw7-5" value="Elige una opcion para continuar:&lt;div&gt;1. Insertar a la cola&lt;/div&gt;&lt;div&gt;2. Eliminar de la cola&lt;/div&gt;&lt;div&gt;3. Imprimir&lt;/div&gt;&lt;div&gt;4. Salir&lt;/div&gt;" style="shape=parallelogram;perimeter=parallelogramPerimeter;whiteSpace=wrap;html=1;fixedSize=1;" vertex="1" parent="1">
          <mxGeometry x="303" y="320" width="245" height="120" as="geometry" />
        </mxCell>
        <mxCell id="8ysda7LcMrtwfy4nSgw7-32" style="edgeStyle=orthogonalEdgeStyle;rounded=0;orthogonalLoop=1;jettySize=auto;html=1;" edge="1" parent="1" source="8ysda7LcMrtwfy4nSgw7-6" target="8ysda7LcMrtwfy4nSgw7-7">
          <mxGeometry relative="1" as="geometry" />
        </mxCell>
        <mxCell id="8ysda7LcMrtwfy4nSgw7-6" value="opcion" style="shape=parallelogram;perimeter=parallelogramPerimeter;whiteSpace=wrap;html=1;fixedSize=1;" vertex="1" parent="1">
          <mxGeometry x="365" y="500" width="120" height="60" as="geometry" />
        </mxCell>
        <mxCell id="8ysda7LcMrtwfy4nSgw7-33" style="edgeStyle=orthogonalEdgeStyle;rounded=0;orthogonalLoop=1;jettySize=auto;html=1;entryX=0.5;entryY=0;entryDx=0;entryDy=0;" edge="1" parent="1" source="8ysda7LcMrtwfy4nSgw7-7" target="8ysda7LcMrtwfy4nSgw7-8">
          <mxGeometry relative="1" as="geometry" />
        </mxCell>
        <mxCell id="8ysda7LcMrtwfy4nSgw7-34" style="edgeStyle=orthogonalEdgeStyle;rounded=0;orthogonalLoop=1;jettySize=auto;html=1;exitX=0;exitY=1;exitDx=0;exitDy=0;entryX=0.5;entryY=0;entryDx=0;entryDy=0;" edge="1" parent="1" source="8ysda7LcMrtwfy4nSgw7-7" target="8ysda7LcMrtwfy4nSgw7-9">
          <mxGeometry relative="1" as="geometry" />
        </mxCell>
        <mxCell id="8ysda7LcMrtwfy4nSgw7-35" style="edgeStyle=orthogonalEdgeStyle;rounded=0;orthogonalLoop=1;jettySize=auto;html=1;exitX=1;exitY=1;exitDx=0;exitDy=0;entryX=0.5;entryY=0;entryDx=0;entryDy=0;" edge="1" parent="1" source="8ysda7LcMrtwfy4nSgw7-7" target="8ysda7LcMrtwfy4nSgw7-10">
          <mxGeometry relative="1" as="geometry">
            <Array as="points">
              <mxPoint x="525" y="660" />
            </Array>
          </mxGeometry>
        </mxCell>
        <mxCell id="8ysda7LcMrtwfy4nSgw7-36" style="edgeStyle=orthogonalEdgeStyle;rounded=0;orthogonalLoop=1;jettySize=auto;html=1;" edge="1" parent="1" source="8ysda7LcMrtwfy4nSgw7-7" target="8ysda7LcMrtwfy4nSgw7-11">
          <mxGeometry relative="1" as="geometry" />
        </mxCell>
        <mxCell id="8ysda7LcMrtwfy4nSgw7-7" value="opcion" style="rhombus;whiteSpace=wrap;html=1;" vertex="1" parent="1">
          <mxGeometry x="385" y="600" width="80" height="80" as="geometry" />
        </mxCell>
        <mxCell id="8ysda7LcMrtwfy4nSgw7-37" style="edgeStyle=orthogonalEdgeStyle;rounded=0;orthogonalLoop=1;jettySize=auto;html=1;entryX=0.5;entryY=0;entryDx=0;entryDy=0;" edge="1" parent="1" source="8ysda7LcMrtwfy4nSgw7-8" target="8ysda7LcMrtwfy4nSgw7-12">
          <mxGeometry relative="1" as="geometry" />
        </mxCell>
        <mxCell id="8ysda7LcMrtwfy4nSgw7-8" value="case 1" style="rounded=1;whiteSpace=wrap;html=1;" vertex="1" parent="1">
          <mxGeometry x="30" y="720" width="120" height="60" as="geometry" />
        </mxCell>
        <mxCell id="8ysda7LcMrtwfy4nSgw7-38" style="edgeStyle=orthogonalEdgeStyle;rounded=0;orthogonalLoop=1;jettySize=auto;html=1;" edge="1" parent="1" source="8ysda7LcMrtwfy4nSgw7-9" target="8ysda7LcMrtwfy4nSgw7-18">
          <mxGeometry relative="1" as="geometry" />
        </mxCell>
        <mxCell id="8ysda7LcMrtwfy4nSgw7-9" value="case 2" style="rounded=1;whiteSpace=wrap;html=1;" vertex="1" parent="1">
          <mxGeometry x="245" y="720" width="120" height="60" as="geometry" />
        </mxCell>
        <mxCell id="8ysda7LcMrtwfy4nSgw7-47" style="edgeStyle=orthogonalEdgeStyle;rounded=0;orthogonalLoop=1;jettySize=auto;html=1;" edge="1" parent="1" source="8ysda7LcMrtwfy4nSgw7-10" target="8ysda7LcMrtwfy4nSgw7-21">
          <mxGeometry relative="1" as="geometry" />
        </mxCell>
        <mxCell id="8ysda7LcMrtwfy4nSgw7-10" value="case 3" style="rounded=1;whiteSpace=wrap;html=1;" vertex="1" parent="1">
          <mxGeometry x="465" y="720" width="120" height="60" as="geometry" />
        </mxCell>
        <mxCell id="8ysda7LcMrtwfy4nSgw7-50" style="edgeStyle=orthogonalEdgeStyle;rounded=0;orthogonalLoop=1;jettySize=auto;html=1;" edge="1" parent="1" source="8ysda7LcMrtwfy4nSgw7-11" target="8ysda7LcMrtwfy4nSgw7-23">
          <mxGeometry relative="1" as="geometry" />
        </mxCell>
        <mxCell id="8ysda7LcMrtwfy4nSgw7-11" value="case 4" style="rounded=1;whiteSpace=wrap;html=1;" vertex="1" parent="1">
          <mxGeometry x="690" y="720" width="120" height="60" as="geometry" />
        </mxCell>
        <mxCell id="8ysda7LcMrtwfy4nSgw7-39" style="edgeStyle=orthogonalEdgeStyle;rounded=0;orthogonalLoop=1;jettySize=auto;html=1;" edge="1" parent="1" source="8ysda7LcMrtwfy4nSgw7-12" target="8ysda7LcMrtwfy4nSgw7-13">
          <mxGeometry relative="1" as="geometry" />
        </mxCell>
        <mxCell id="8ysda7LcMrtwfy4nSgw7-12" value="Ingrese el dato" style="shape=parallelogram;perimeter=parallelogramPerimeter;whiteSpace=wrap;html=1;fixedSize=1;" vertex="1" parent="1">
          <mxGeometry x="30" y="830" width="120" height="60" as="geometry" />
        </mxCell>
        <mxCell id="8ysda7LcMrtwfy4nSgw7-41" style="edgeStyle=orthogonalEdgeStyle;rounded=0;orthogonalLoop=1;jettySize=auto;html=1;" edge="1" parent="1" source="8ysda7LcMrtwfy4nSgw7-13" target="8ysda7LcMrtwfy4nSgw7-14">
          <mxGeometry relative="1" as="geometry" />
        </mxCell>
        <mxCell id="8ysda7LcMrtwfy4nSgw7-13" value="dato" style="shape=parallelogram;perimeter=parallelogramPerimeter;whiteSpace=wrap;html=1;fixedSize=1;" vertex="1" parent="1">
          <mxGeometry x="30" y="920" width="120" height="60" as="geometry" />
        </mxCell>
        <mxCell id="8ysda7LcMrtwfy4nSgw7-43" style="edgeStyle=orthogonalEdgeStyle;rounded=0;orthogonalLoop=1;jettySize=auto;html=1;" edge="1" parent="1" source="8ysda7LcMrtwfy4nSgw7-14" target="8ysda7LcMrtwfy4nSgw7-15">
          <mxGeometry relative="1" as="geometry" />
        </mxCell>
        <mxCell id="8ysda7LcMrtwfy4nSgw7-14" value="Ingrese la prioridad que tendrÃ¡ el dato" style="shape=parallelogram;perimeter=parallelogramPerimeter;whiteSpace=wrap;html=1;fixedSize=1;" vertex="1" parent="1">
          <mxGeometry x="10" y="1030" width="160" height="60" as="geometry" />
        </mxCell>
        <mxCell id="8ysda7LcMrtwfy4nSgw7-45" style="edgeStyle=orthogonalEdgeStyle;rounded=0;orthogonalLoop=1;jettySize=auto;html=1;" edge="1" parent="1" source="8ysda7LcMrtwfy4nSgw7-15" target="8ysda7LcMrtwfy4nSgw7-17">
          <mxGeometry relative="1" as="geometry" />
        </mxCell>
        <mxCell id="8ysda7LcMrtwfy4nSgw7-15" value="prioridad" style="shape=parallelogram;perimeter=parallelogramPerimeter;whiteSpace=wrap;html=1;fixedSize=1;" vertex="1" parent="1">
          <mxGeometry x="30" y="1130" width="120" height="60" as="geometry" />
        </mxCell>
        <mxCell id="8ysda7LcMrtwfy4nSgw7-46" style="edgeStyle=orthogonalEdgeStyle;rounded=0;orthogonalLoop=1;jettySize=auto;html=1;" edge="1" parent="1" source="8ysda7LcMrtwfy4nSgw7-17" target="8ysda7LcMrtwfy4nSgw7-24">
          <mxGeometry relative="1" as="geometry" />
        </mxCell>
        <mxCell id="8ysda7LcMrtwfy4nSgw7-17" value="colaInsertar(&amp;amp;cola, dato, prioridad)" style="shape=step;perimeter=stepPerimeter;whiteSpace=wrap;html=1;fixedSize=1;" vertex="1" parent="1">
          <mxGeometry x="30" y="1230" width="120" height="80" as="geometry" />
        </mxCell>
        <mxCell id="8ysda7LcMrtwfy4nSgw7-40" style="edgeStyle=orthogonalEdgeStyle;rounded=0;orthogonalLoop=1;jettySize=auto;html=1;entryX=0.563;entryY=0.008;entryDx=0;entryDy=0;entryPerimeter=0;" edge="1" parent="1" source="8ysda7LcMrtwfy4nSgw7-18" target="8ysda7LcMrtwfy4nSgw7-19">
          <mxGeometry relative="1" as="geometry" />
        </mxCell>
        <mxCell id="8ysda7LcMrtwfy4nSgw7-18" value="Ingrese el dato a eliminar" style="shape=parallelogram;perimeter=parallelogramPerimeter;whiteSpace=wrap;html=1;fixedSize=1;" vertex="1" parent="1">
          <mxGeometry x="245" y="830" width="120" height="60" as="geometry" />
        </mxCell>
        <mxCell id="8ysda7LcMrtwfy4nSgw7-42" style="edgeStyle=orthogonalEdgeStyle;rounded=0;orthogonalLoop=1;jettySize=auto;html=1;" edge="1" parent="1" source="8ysda7LcMrtwfy4nSgw7-19" target="8ysda7LcMrtwfy4nSgw7-20">
          <mxGeometry relative="1" as="geometry" />
        </mxCell>
        <mxCell id="8ysda7LcMrtwfy4nSgw7-19" value="dato" style="shape=parallelogram;perimeter=parallelogramPerimeter;whiteSpace=wrap;html=1;fixedSize=1;" vertex="1" parent="1">
          <mxGeometry x="240" y="920" width="120" height="60" as="geometry" />
        </mxCell>
        <mxCell id="8ysda7LcMrtwfy4nSgw7-44" style="edgeStyle=orthogonalEdgeStyle;rounded=0;orthogonalLoop=1;jettySize=auto;html=1;" edge="1" parent="1" source="8ysda7LcMrtwfy4nSgw7-20" target="8ysda7LcMrtwfy4nSgw7-25">
          <mxGeometry relative="1" as="geometry" />
        </mxCell>
        <mxCell id="8ysda7LcMrtwfy4nSgw7-20" value="colaAbandono(&amp;amp;cola, dato)" style="shape=step;perimeter=stepPerimeter;whiteSpace=wrap;html=1;fixedSize=1;" vertex="1" parent="1">
          <mxGeometry x="240" y="1010" width="120" height="80" as="geometry" />
        </mxCell>
        <mxCell id="8ysda7LcMrtwfy4nSgw7-48" style="edgeStyle=orthogonalEdgeStyle;rounded=0;orthogonalLoop=1;jettySize=auto;html=1;" edge="1" parent="1" source="8ysda7LcMrtwfy4nSgw7-21" target="8ysda7LcMrtwfy4nSgw7-22">
          <mxGeometry relative="1" as="geometry" />
        </mxCell>
        <mxCell id="8ysda7LcMrtwfy4nSgw7-21" value="Imprimiendo cola" style="shape=parallelogram;perimeter=parallelogramPerimeter;whiteSpace=wrap;html=1;fixedSize=1;" vertex="1" parent="1">
          <mxGeometry x="460" y="830" width="120" height="60" as="geometry" />
        </mxCell>
        <mxCell id="8ysda7LcMrtwfy4nSgw7-51" style="edgeStyle=orthogonalEdgeStyle;rounded=0;orthogonalLoop=1;jettySize=auto;html=1;" edge="1" parent="1" source="8ysda7LcMrtwfy4nSgw7-22" target="8ysda7LcMrtwfy4nSgw7-26">
          <mxGeometry relative="1" as="geometry" />
        </mxCell>
        <mxCell id="8ysda7LcMrtwfy4nSgw7-22" value="colaImprimir" style="shape=step;perimeter=stepPerimeter;whiteSpace=wrap;html=1;fixedSize=1;" vertex="1" parent="1">
          <mxGeometry x="460" y="920" width="120" height="80" as="geometry" />
        </mxCell>
        <mxCell id="8ysda7LcMrtwfy4nSgw7-52" style="edgeStyle=orthogonalEdgeStyle;rounded=0;orthogonalLoop=1;jettySize=auto;html=1;" edge="1" parent="1" source="8ysda7LcMrtwfy4nSgw7-23" target="8ysda7LcMrtwfy4nSgw7-27">
          <mxGeometry relative="1" as="geometry" />
        </mxCell>
        <mxCell id="8ysda7LcMrtwfy4nSgw7-23" value="exit(1)" style="rounded=1;whiteSpace=wrap;html=1;" vertex="1" parent="1">
          <mxGeometry x="690" y="830" width="120" height="60" as="geometry" />
        </mxCell>
        <mxCell id="8ysda7LcMrtwfy4nSgw7-53" style="edgeStyle=orthogonalEdgeStyle;rounded=0;orthogonalLoop=1;jettySize=auto;html=1;entryX=0;entryY=0;entryDx=0;entryDy=0;" edge="1" parent="1" source="8ysda7LcMrtwfy4nSgw7-24" target="8ysda7LcMrtwfy4nSgw7-4">
          <mxGeometry relative="1" as="geometry">
            <Array as="points">
              <mxPoint x="190" y="1380" />
              <mxPoint x="190" y="263" />
            </Array>
          </mxGeometry>
        </mxCell>
        <mxCell id="8ysda7LcMrtwfy4nSgw7-24" value="break" style="rounded=1;whiteSpace=wrap;html=1;" vertex="1" parent="1">
          <mxGeometry x="30" y="1350" width="120" height="60" as="geometry" />
        </mxCell>
        <mxCell id="8ysda7LcMrtwfy4nSgw7-54" style="edgeStyle=orthogonalEdgeStyle;rounded=0;orthogonalLoop=1;jettySize=auto;html=1;entryX=0;entryY=1;entryDx=0;entryDy=0;" edge="1" parent="1" source="8ysda7LcMrtwfy4nSgw7-25" target="8ysda7LcMrtwfy4nSgw7-4">
          <mxGeometry relative="1" as="geometry">
            <mxPoint x="420" y="270" as="targetPoint" />
            <Array as="points">
              <mxPoint x="220" y="1160" />
              <mxPoint x="220" y="277" />
            </Array>
          </mxGeometry>
        </mxCell>
        <mxCell id="8ysda7LcMrtwfy4nSgw7-25" value="break" style="rounded=1;whiteSpace=wrap;html=1;" vertex="1" parent="1">
          <mxGeometry x="240" y="1130" width="120" height="60" as="geometry" />
        </mxCell>
        <mxCell id="8ysda7LcMrtwfy4nSgw7-55" style="edgeStyle=orthogonalEdgeStyle;rounded=0;orthogonalLoop=1;jettySize=auto;html=1;entryX=1;entryY=0.5;entryDx=0;entryDy=0;" edge="1" parent="1" source="8ysda7LcMrtwfy4nSgw7-26" target="8ysda7LcMrtwfy4nSgw7-4">
          <mxGeometry relative="1" as="geometry">
            <mxPoint x="620" y="270" as="targetPoint" />
            <Array as="points">
              <mxPoint x="630" y="1050" />
              <mxPoint x="630" y="270" />
            </Array>
          </mxGeometry>
        </mxCell>
        <mxCell id="8ysda7LcMrtwfy4nSgw7-26" value="Break" style="rounded=1;whiteSpace=wrap;html=1;" vertex="1" parent="1">
          <mxGeometry x="460" y="1020" width="120" height="60" as="geometry" />
        </mxCell>
        <mxCell id="8ysda7LcMrtwfy4nSgw7-57" value="" style="edgeStyle=orthogonalEdgeStyle;rounded=0;orthogonalLoop=1;jettySize=auto;html=1;" edge="1" parent="1" source="8ysda7LcMrtwfy4nSgw7-27" target="8ysda7LcMrtwfy4nSgw7-56">
          <mxGeometry relative="1" as="geometry" />
        </mxCell>
        <mxCell id="8ysda7LcMrtwfy4nSgw7-27" value="Break" style="rounded=1;whiteSpace=wrap;html=1;" vertex="1" parent="1">
          <mxGeometry x="690" y="920" width="120" height="60" as="geometry" />
        </mxCell>
        <mxCell id="8ysda7LcMrtwfy4nSgw7-56" value="fin" style="ellipse;whiteSpace=wrap;html=1;rounded=1;" vertex="1" parent="1">
          <mxGeometry x="710" y="1020" width="80" height="80" as="geometry" />
        </mxCell>
      </root>
    </mxGraphModel>
  </diagram>
</mxfile>
